<?xml version="1.0" encoding="UTF-8"?>
<svg width="220px" height="82px" viewBox="0 0 220 82" version="1.1" xmlns="http://www.w3.org/2000/svg" xmlns:xlink="http://www.w3.org/1999/xlink">
    <title>logo-color-fondblanc</title>
    <defs>
        <linearGradient x1="29.2998662%" y1="25.2896953%" x2="83.3235742%" y2="71.5423061%" id="linearGradient-1">
            <stop stop-color="#64D7FE" offset="0%"></stop>
            <stop stop-color="#FD5087" offset="100%"></stop>
        </linearGradient>
    </defs>
    <g id="Page-1" stroke="none" stroke-width="1" fill="none" fill-rule="evenodd">
        <g id="LOGO-COLOR" transform="translate(-380.000000, -246.000000)">
            <g id="logo-color-fondblanc" transform="translate(380.000000, 246.000000)">
                <path d="M215,0 C217.209139,-4.05812251e-16 219,1.790861 219,4 L219,78 C219,80.209139 217.209139,82 215,82 L141,82 C138.790861,82 137,80.209139 137,78 L136.999355,53.716 L137.001205,53.7142792 L142.838805,63.5957408 L151.963946,63.5957408 L142.231024,48.4146538 L151.659947,33.2335667 L142.838805,33.2335667 L137.001205,42.3686829 L136.999355,42.366 L137,4 C137,1.790861 138.790861,4.05812251e-16 141,0 L215,0 Z M164.411957,20.5957408 L156.620185,20.5957408 L156.620185,63.5957408 L164.411957,63.5957408 L164.411957,20.5957408 Z M131.903275,33.2335667 L136.999355,42.366 L136.999355,53.716 L131.002291,63.5957408 L121.904355,63.5957408 L131.903275,48.4146538 L122.817214,33.2335667 L131.903275,33.2335667 Z" id="Combined-Shape" fill="url(#linearGradient-1)"></path>
                <path d="M117.411957,33.2335667 L117.411957,63.5957408 L109.620185,63.5957408 L109.620185,33.2335667 L117.411957,33.2335667 Z M113.397128,18.7524421 C116.158552,18.7524421 118.397128,20.9910183 118.397128,23.7524421 C118.397128,26.5138658 116.158552,28.7524421 113.397128,28.7524421 C110.635704,28.7524421 108.397128,26.5138658 108.397128,23.7524421 C108.397128,20.9910183 110.635704,18.7524421 113.397128,18.7524421 Z" id="i" fill="#363E41"></path>
                <path d="M79.397128,32.7524421 L79.3972089,36.0040151 C82.0211346,33.9659426 85.3174172,32.7524421 88.897128,32.7524421 C97.4575416,32.7524421 104.397128,39.6920285 104.397128,48.2524421 C104.397128,56.8128557 97.4575416,63.7524421 88.897128,63.7524421 C85.3174172,63.7524421 82.0211346,62.5389416 79.3972089,60.5008691 L79.397128,75.7524421 L71.397128,75.7524421 L71.397128,32.7524421 L79.397128,32.7524421 Z M87.897128,39.7524421 C83.2027076,39.7524421 79.397128,43.5580217 79.397128,48.2524421 C79.397128,52.9468625 83.2027076,56.7524421 87.897128,56.7524421 C92.5915483,56.7524421 96.397128,52.9468625 96.397128,48.2524421 C96.397128,43.5580217 92.5915483,39.7524421 87.897128,39.7524421 Z" id="p" fill="#363E41"></path>
                <path d="M61.3440957,15 L61.3439929,24.4306023 C56.1267025,25.2457072 51.5407572,27.9661809 48.3202999,31.8578805 C49.0405317,31.7559059 49.7764226,31.7029698 50.5246774,31.7029698 C59.09872,31.7029698 66.0493549,38.6536047 66.0493549,47.2276472 C66.0493549,55.8016898 59.09872,62.7523247 50.5246774,62.7523247 C41.9506348,62.7523247 35,55.8016898 35,47.2276472 C35,46.7519945 35.0213911,46.2813378 35.0632638,45.8165869 L35.0144236,45.81637 C35.0048312,45.5038962 35,45.190224 35,44.8754234 C35,29.5218247 46.4923154,16.8524001 61.3440957,15 Z M50.5246774,40.1709757 C46.6273854,40.1709757 43.4680059,43.3303552 43.4680059,47.2276472 C43.4680059,51.1249393 46.6273854,54.2843188 50.5246774,54.2843188 C54.4219695,54.2843188 57.581349,51.1249393 57.581349,47.2276472 C57.581349,43.3303552 54.4219695,40.1709757 50.5246774,40.1709757 Z" id="9" fill="#363E41" transform="translate(50.524677, 38.876162) scale(-1, -1) translate(-50.524677, -38.876162) "></path>
                <path d="M27.3448406,15.0009496 L27.344993,24.4305634 C22.127082,25.2455091 17.5405997,27.966265 14.3199173,31.8584601 C15.0397996,31.7560759 15.7760504,31.7030871 16.5246774,31.7030871 C25.09872,31.7030871 32.0493549,38.653722 32.0493549,47.2277646 C32.0493549,55.8018072 25.09872,62.752442 16.5246774,62.752442 C9.15813604,62.752442 2.98994445,57.6216966 1.3986904,50.7387934 L1.39910486,50.7920065 L1.3250897,50.4034791 C1.23091386,49.9504203 1.15648418,49.4901244 1.10274118,49.0235318 C0.919897021,47.6927066 0.825698347,46.3338149 0.825698347,44.9526708 C0.825698347,29.5978123 12.4685239,16.8618009 27.3448406,15.0009496 Z M16.5246774,40.171093 C12.6273854,40.171093 9.46800588,43.3304725 9.46800588,47.2277646 C9.46800588,51.1250566 12.6273854,54.2844361 16.5246774,54.2844361 C20.4219695,54.2844361 23.581349,51.1250566 23.581349,47.2277646 C23.581349,43.3304725 20.4219695,40.171093 16.5246774,40.171093 Z" id="6" fill="#363E41"></path>
            </g>
        </g>
    </g>
</svg>